<?xml version="1.0" encoding="UTF-8"?>
<!DOCTYPE svg PUBLIC "-//W3C//DTD SVG 1.1//EN"
    "http://www.w3.org/Graphics/SVG/1.1/DTD/svg11.dtd"><svg width="277.3602" stroke-opacity="1" stroke="rgb(0,0,0)" xmlns:xlink="http://www.w3.org/1999/xlink" xmlns="http://www.w3.org/2000/svg" viewBox="0.0 0.0 277.36019285360396 293.9577663450861" font-size="1" height="293.9578" version="1.1"><defs></defs><g stroke-opacity="1.0" fill="rgb(0,0,0)" stroke="rgb(0,0,0)" stroke-linejoin="miter" stroke-linecap="butt" stroke-width="1.1421536342491774" stroke-miterlimit="10.0" fill-opacity="0.0"><path d="M 234.1731,168.4648 c 0.0000,-52.7393 -42.7537,-95.4930 -95.4930 -95.4930c -52.7393,-0.0000 -95.4930,42.7537 -95.4930 95.4930c -0.0000,52.7393 42.7537,95.4930 95.4930 95.4930c 52.7393,0.0000 95.4930,-42.7537 95.4930 -95.4930Z"/></g><g stroke-opacity="1.0" fill="rgb(0,0,0)" stroke="rgb(0,0,0)" stroke-linejoin="miter" stroke-linecap="butt" stroke-width="1.1421536342491774" font-size="12.0px" stroke-miterlimit="10.0" fill-opacity="1.0"><text dominant-baseline="middle" stroke="none" transform="matrix(1.0000,0.0000,0.0000,1.0000,30.0000,231.2113)" text-anchor="middle">2/3</text></g><g stroke-opacity="1.0" fill="rgb(0,0,0)" stroke="rgb(0,0,0)" stroke-linejoin="miter" stroke-linecap="butt" stroke-width="1.1421536342491774" font-size="12.0px" stroke-miterlimit="10.0" fill-opacity="1.0"><text dominant-baseline="middle" stroke="none" transform="matrix(1.0000,0.0000,0.0000,1.0000,247.3602,231.2113)" text-anchor="middle">1/3</text></g><g stroke-opacity="1.0" fill="rgb(0,0,0)" stroke="rgb(0,0,0)" stroke-linejoin="miter" stroke-linecap="butt" stroke-width="1.1421536342491774" font-size="12.0px" stroke-miterlimit="10.0" fill-opacity="1.0"><text dominant-baseline="middle" stroke="none" transform="matrix(1.0000,0.0000,0.0000,1.0000,138.6801,42.9718)" text-anchor="middle">0</text></g><g stroke-opacity="1.0" fill="rgb(0,0,0)" stroke="rgb(0,0,0)" stroke-linejoin="miter" stroke-linecap="butt" stroke-width="1.1421536342491774" stroke-miterlimit="10.0" fill-opacity="0.0"><path d="M 60.1157,213.8240 l -8.2699,4.7746 "/></g><g stroke-opacity="1.0" fill="rgb(0,0,0)" stroke="rgb(0,0,0)" stroke-linejoin="miter" stroke-linecap="butt" stroke-width="1.1421536342491774" stroke-miterlimit="10.0" fill-opacity="0.0"><path d="M 217.2445,213.8240 l 8.2699,4.7746 "/></g><g stroke-opacity="1.0" fill="rgb(0,0,0)" stroke="rgb(0,0,0)" stroke-linejoin="miter" stroke-linecap="butt" stroke-width="1.1421536342491774" stroke-miterlimit="10.0" fill-opacity="0.0"><path d="M 138.6801,77.7465 l 0.0000,-9.5493 "/></g><g stroke-opacity="1.0" fill="rgb(0,0,0)" stroke="rgb(0,0,0)" stroke-linejoin="miter" stroke-linecap="butt" stroke-width="1.1421536342491774" stroke-miterlimit="10.0" fill-opacity="0.0"><path d="M 138.6801,30.0000 c 20.0165,-0.7228 39.8914,3.6222 57.7802 12.6318"/></g><g stroke-opacity="1.0" fill="rgb(0,0,0)" stroke="rgb(0,0,0)" stroke-linejoin="miter" stroke-linecap="butt" stroke-width="0.0" stroke-miterlimit="10.0" fill-opacity="1.0"></g><g stroke-opacity="1.0" fill="rgb(0,0,0)" stroke="rgb(0,0,0)" stroke-linejoin="miter" stroke-linecap="butt" stroke-width="0.0" stroke-miterlimit="10.0" fill-opacity="1.0"></g><g stroke-opacity="1.0" fill="rgb(0,0,0)" stroke="rgb(0,0,0)" stroke-linejoin="miter" stroke-linecap="butt" stroke-width="0.0" stroke-miterlimit="10.0" fill-opacity="1.0"><path d="M 205.3860,47.1272 l -8.7325,-8.6511 l 0.0749,4.2908 l -3.4922,2.4942 Z"/></g><g stroke-opacity="1.0" fill="rgb(0,0,0)" stroke="rgb(0,0,0)" stroke-linejoin="miter" stroke-linecap="butt" stroke-width="0.0" stroke-miterlimit="10.0" fill-opacity="1.0"><path d="M 196.7285,42.7668 l -0.2681,-0.1350 l 0.2569,-0.5100 l 0.0113,0.6451 l -0.2681,-0.1350 l -0.2569,0.5100 Z"/></g><g stroke-opacity="1.0" fill="rgb(214,39,40)" stroke="rgb(0,0,0)" stroke-linejoin="miter" stroke-linecap="butt" stroke-width="0.0" stroke-miterlimit="10.0" fill-opacity="1.0"><path d="M 65.0740,210.9613 l -18.1865,10.5000 c -29.2691,-50.6957 -11.8995,-115.5199 38.7961 -144.7891c 15.5266,-8.9643 33.0733,-13.8436 50.9987 -14.1815l 0.3958,20.9963 c -46.9320,0.8848 -84.2606,39.6479 -83.3759 86.5799c 0.2710,14.3739 4.1836,28.4441 11.3718 40.8945Z"/></g><g stroke-opacity="1.0" fill="rgb(255,127,14)" stroke="rgb(0,0,0)" stroke-linejoin="miter" stroke-linecap="butt" stroke-width="0.0" stroke-miterlimit="10.0" fill-opacity="1.0"><path d="M 138.6801,83.4718 l 0.0000,-21.0000 c 58.5383,0.0000 105.9930,47.4547 105.9930 105.9930c -0.0000,17.9286 -4.5477,35.5641 -13.2178 51.2569l -18.3812,-10.1553 c 22.6998,-41.0867 7.7943,-92.7958 -33.2924 -115.4956c -12.5836,-6.9523 -26.7251,-10.5990 -41.1016 -10.5990Z"/></g><g stroke-opacity="1.0" fill="rgb(255,152,150)" stroke="rgb(0,0,0)" stroke-linejoin="miter" stroke-linecap="butt" stroke-width="0.0" font-size="18.0px" stroke-miterlimit="10.0" fill-opacity="1.0"><text dominant-baseline="middle" stroke="none" transform="matrix(1.0000,0.0000,0.0000,1.0000,50.6486,205.4698)" text-anchor="middle">&quot;tau&quot;</text></g><g stroke-opacity="1.0" fill="rgb(255,187,120)" stroke="rgb(0,0,0)" stroke-linejoin="miter" stroke-linecap="butt" stroke-width="0.0" font-size="18.0px" stroke-miterlimit="10.0" fill-opacity="1.0"><text dominant-baseline="middle" stroke="none" transform="matrix(1.0000,0.0000,0.0000,1.0000,150.6485,73.7248)" text-anchor="middle">&quot;phi&quot;</text></g></svg>