<?xml version="1.0" encoding="UTF-8"?>
<!DOCTYPE svg PUBLIC "-//W3C//DTD SVG 1.1//EN"
    "http://www.w3.org/Graphics/SVG/1.1/DTD/svg11.dtd"><svg width="660.0000" stroke-opacity="1" stroke="rgb(0,0,0)" xmlns:xlink="http://www.w3.org/1999/xlink" xmlns="http://www.w3.org/2000/svg" viewBox="0.0 0.0 660.0000000000002 297.43723504372133" font-size="1" height="297.4372" version="1.1"><defs></defs><g stroke-opacity="1.0" fill="rgb(174,199,232)" stroke="rgb(0,0,0)" stroke-linejoin="miter" stroke-linecap="butt" stroke-width="1.7722689417979705" font-size="13.5px" stroke-miterlimit="10.0" fill-opacity="1.0"><text dominant-baseline="text-before-edge" stroke="none" transform="matrix(1.0000,0.0000,0.0000,1.0000,162.0000,267.4372)" text-anchor="middle">zero-width part</text></g><g stroke-opacity="1.0" fill="rgb(0,0,0)" stroke="rgb(31,119,180)" stroke-linejoin="miter" stroke-linecap="butt" stroke-width="1.7722689417979705" stroke-miterlimit="10.0" fill-opacity="0.0"><path d="M 162.0000,267.4372 v -21.0000 h -0.0000 v 21.0000 Z"/></g><g stroke-opacity="1.0" fill="rgb(174,199,232)" stroke="rgb(0,0,0)" stroke-linejoin="miter" stroke-linecap="butt" stroke-width="1.7722689417979705" font-size="18.0px" stroke-miterlimit="10.0" fill-opacity="1.0"><text dominant-baseline="middle" stroke="none" transform="matrix(1.0000,0.0000,0.0000,1.0000,174.0000,256.9372)" text-anchor="start">0.991</text></g><g stroke-opacity="1.0" fill="rgb(0,0,0)" stroke="rgb(0,0,0)" stroke-linejoin="miter" stroke-linecap="butt" stroke-width="1.7722689417979705" font-size="18.0px" stroke-miterlimit="10.0" fill-opacity="1.0"><text dominant-baseline="middle" stroke="none" transform="matrix(1.0000,0.0000,0.0000,1.0000,30.0000,231.4372)" text-anchor="start">Result:</text></g><g stroke-opacity="1.0" fill="rgb(0,0,0)" stroke="rgb(0,0,0)" stroke-linejoin="miter" stroke-linecap="butt" stroke-width="1.7722689417979705" stroke-miterlimit="10.0" fill-opacity="0.0"><path d="M 162.0000,195.4372 v 21.0000 "/></g><g stroke-opacity="1.0" fill="rgb(0,0,0)" stroke="rgb(0,0,0)" stroke-linejoin="miter" stroke-linecap="butt" stroke-width="1.7722689417979705" font-size="18.0px" stroke-miterlimit="10.0" fill-opacity="1.0"><text dominant-baseline="middle" stroke="none" transform="matrix(1.0000,0.0000,0.0000,1.0000,162.0000,205.9372)" text-anchor="start">Arc 0.22 0.22</text></g><g stroke-opacity="1.0" fill="rgb(0,0,0)" stroke="rgb(0,0,0)" stroke-linejoin="miter" stroke-linecap="butt" stroke-width="1.7722689417979705" font-size="18.0px" stroke-miterlimit="10.0" fill-opacity="1.0"><text dominant-baseline="middle" stroke="none" transform="matrix(1.0000,0.0000,0.0000,1.0000,30.0000,180.4372)" text-anchor="start">Arc to query:</text></g><g stroke-opacity="1.0" fill="rgb(0,0,0)" stroke="rgb(0,0,0)" stroke-linejoin="miter" stroke-linecap="butt" stroke-width="1.7722689417979705" font-size="12.0px" stroke-miterlimit="10.0" fill-opacity="1.0"><text dominant-baseline="middle" stroke="none" transform="matrix(1.0000,0.0000,0.0000,1.0000,630.0000,165.4372)" text-anchor="middle">1</text></g><g stroke-opacity="1.0" fill="rgb(0,0,0)" stroke="rgb(0,0,0)" stroke-linejoin="miter" stroke-linecap="butt" stroke-width="1.7722689417979705" font-size="12.0px" stroke-miterlimit="10.0" fill-opacity="1.0"><text dominant-baseline="middle" stroke="none" transform="matrix(1.0000,0.0000,0.0000,1.0000,30.0000,165.4372)" text-anchor="middle">0</text></g><g stroke-opacity="1.0" fill="rgb(0,0,0)" stroke="rgb(0,0,0)" stroke-linejoin="miter" stroke-linecap="butt" stroke-width="1.7722689417979705" stroke-miterlimit="10.0" fill-opacity="0.0"><path d="M 630.0000,148.6372 v 9.6000 "/></g><g stroke-opacity="1.0" fill="rgb(0,0,0)" stroke="rgb(0,0,0)" stroke-linejoin="miter" stroke-linecap="butt" stroke-width="1.7722689417979705" stroke-miterlimit="10.0" fill-opacity="0.0"><path d="M 30.0000,148.6372 v 9.6000 "/></g><g stroke-opacity="1.0" fill="rgb(0,0,0)" stroke="rgb(0,0,0)" stroke-linejoin="miter" stroke-linecap="butt" stroke-width="1.7722689417979705" stroke-miterlimit="10.0" fill-opacity="0.0"><path d="M 30.0000,93.4372 l 6.0000,-3.7674 l 6.0000,-3.7526 l 6.0000,-3.7229 l 6.0000,-3.6785 l 6.0000,-3.6196 l 6.0000,-3.5465 l 6.0000,-3.4593 l 6.0000,-3.3585 l 6.0000,-3.2444 l 6.0000,-3.1175 l 6.0000,-2.9783 l 6.0000,-2.8274 l 6.0000,-2.6653 l 6.0000,-2.4927 l 6.0000,-2.3102 l 6.0000,-2.1187 l 6.0000,-1.9187 l 6.0000,-1.7112 l 6.0000,-1.4970 l 6.0000,-1.2768 l 6.0000,-1.0516 l 6.0000,-0.8222 l 6.0000,-0.5896 l 6.0000,-0.3547 l 6.0000,-0.1184 l 6.0000,0.1184 l 6.0000,0.3547 l 6.0000,0.5896 l 6.0000,0.8222 l 6.0000,1.0516 l 6.0000,1.2768 l 6.0000,1.4970 l 6.0000,1.7112 l 6.0000,1.9187 l 6.0000,2.1187 l 6.0000,2.3102 l 6.0000,2.4927 l 6.0000,2.6653 l 6.0000,2.8274 l 6.0000,2.9783 l 6.0000,3.1175 l 6.0000,3.2444 l 6.0000,3.3585 l 6.0000,3.4593 l 6.0000,3.5465 l 6.0000,3.6196 l 6.0000,3.6785 l 6.0000,3.7229 l 6.0000,3.7526 l 6.0000,3.7674 l 6.0000,3.7674 l 6.0000,3.7526 l 6.0000,3.7229 l 6.0000,3.6785 l 6.0000,3.6196 l 6.0000,3.5465 l 6.0000,3.4593 l 6.0000,3.3585 l 6.0000,3.2444 l 6.0000,3.1175 l 6.0000,2.9783 l 6.0000,2.8274 l 6.0000,2.6653 l 6.0000,2.4927 l 6.0000,2.3102 l 6.0000,2.1187 l 6.0000,1.9187 l 6.0000,1.7112 l 6.0000,1.4970 l 6.0000,1.2768 l 6.0000,1.0516 l 6.0000,0.8222 l 6.0000,0.5896 l 6.0000,0.3547 l 6.0000,0.1184 l 6.0000,-0.1184 l 6.0000,-0.3547 l 6.0000,-0.5896 l 6.0000,-0.8222 l 6.0000,-1.0516 l 6.0000,-1.2768 l 6.0000,-1.4970 l 6.0000,-1.7112 l 6.0000,-1.9187 l 6.0000,-2.1187 l 6.0000,-2.3102 l 6.0000,-2.4927 l 6.0000,-2.6653 l 6.0000,-2.8274 l 6.0000,-2.9783 l 6.0000,-3.1175 l 6.0000,-3.2444 l 6.0000,-3.3585 l 6.0000,-3.4593 l 6.0000,-3.5465 l 6.0000,-3.6196 l 6.0000,-3.6785 l 6.0000,-3.7229 l 6.0000,-3.7526 l 6.0000,-3.7674 "/></g><g stroke-opacity="1.0" fill="rgb(0,0,0)" stroke="rgb(0,0,0)" stroke-linejoin="miter" stroke-linecap="butt" stroke-width="1.7722689417979705" stroke-miterlimit="10.0" fill-opacity="0.0"><path d="M 30.0000,153.4372 h 600.0000 "/></g><g stroke-opacity="1.0" fill="rgb(0,0,0)" stroke="rgb(0,0,0)" stroke-linejoin="miter" stroke-linecap="butt" stroke-width="1.7722689417979705" stroke-miterlimit="10.0" fill-opacity="0.0"><path d="M 30.0000,153.4372 v -120.0000 "/></g><g stroke-opacity="1.0" fill="rgb(0,0,0)" stroke="rgb(0,0,0)" stroke-linejoin="miter" stroke-linecap="butt" stroke-width="1.7722689417979705" font-size="18.0px" stroke-miterlimit="10.0" fill-opacity="1.0"><text dominant-baseline="middle" stroke="none" transform="matrix(1.0000,0.0000,0.0000,1.0000,174.0000,34.5000)" text-anchor="start">0.991</text></g><g stroke-opacity="1.0" fill="rgb(255,0,0)" stroke="rgb(0,0,0)" stroke-linejoin="miter" stroke-linecap="butt" stroke-width="0.0" stroke-miterlimit="10.0" fill-opacity="1.0"><path d="M 166.5000,34.5000 c 0.0000,-2.4853 -2.0147,-4.5000 -4.5000 -4.5000c -2.4853,-0.0000 -4.5000,2.0147 -4.5000 4.5000c -0.0000,2.4853 2.0147,4.5000 4.5000 4.5000c 2.4853,0.0000 4.5000,-2.0147 4.5000 -4.5000Z"/></g></svg>