<?xml version="1.0" encoding="UTF-8"?>
<!DOCTYPE svg PUBLIC "-//W3C//DTD SVG 1.1//EN"
    "http://www.w3.org/Graphics/SVG/1.1/DTD/svg11.dtd"><svg width="660.0000" stroke-opacity="1" stroke="rgb(0,0,0)" xmlns:xlink="http://www.w3.org/1999/xlink" xmlns="http://www.w3.org/2000/svg" viewBox="0.0 0.0 660.0000000000002 219.0" font-size="1" height="219.0000" version="1.1"><defs></defs><g stroke-opacity="1.0" fill="rgb(0,0,0)" stroke="rgb(0,0,0)" stroke-linejoin="miter" stroke-linecap="butt" stroke-width="1.5207366635943256" stroke-miterlimit="10.0" fill-opacity="0.0"><path d="M 338.7442,185.8500 h 102.5115 "/></g><g stroke-opacity="1.0" fill="rgb(0,0,0)" stroke="rgb(0,0,0)" stroke-linejoin="miter" stroke-linecap="butt" stroke-width="0.0" stroke-miterlimit="10.0" fill-opacity="1.0"><path d="M 330.0000,185.8500 l 10.0635,-3.2698 l -1.7191,3.2698 l 1.7191,3.2698 Z"/></g><g stroke-opacity="1.0" fill="rgb(0,0,0)" stroke="rgb(0,0,0)" stroke-linejoin="miter" stroke-linecap="butt" stroke-width="0.0" stroke-miterlimit="10.0" fill-opacity="1.0"><path d="M 338.3445,185.8500 h 0.3997 v -0.7604 l -0.3997,0.7604 h 0.3997 v 0.7604 Z"/></g><g stroke-opacity="1.0" fill="rgb(0,0,0)" stroke="rgb(0,0,0)" stroke-linejoin="miter" stroke-linecap="butt" stroke-width="0.0" stroke-miterlimit="10.0" fill-opacity="1.0"><path d="M 450.0000,185.8500 l -10.0635,-3.2698 l 1.7191,3.2698 l -1.7191,3.2698 Z"/></g><g stroke-opacity="1.0" fill="rgb(0,0,0)" stroke="rgb(0,0,0)" stroke-linejoin="miter" stroke-linecap="butt" stroke-width="0.0" stroke-miterlimit="10.0" fill-opacity="1.0"><path d="M 441.6555,185.8500 h -0.3997 v -0.7604 l 0.3997,0.7604 h -0.3997 v 0.7604 Z"/></g><g stroke-opacity="1.0" fill="rgb(0,0,0)" stroke="rgb(0,0,0)" stroke-linejoin="miter" stroke-linecap="butt" stroke-width="1.5207366635943256" stroke-miterlimit="10.0" fill-opacity="0.0"><path d="M 450.0000,168.0000 v 21.0000 "/></g><g stroke-opacity="1.0" fill="rgb(0,0,0)" stroke="rgb(0,0,0)" stroke-linejoin="miter" stroke-linecap="butt" stroke-width="1.5207366635943256" stroke-miterlimit="10.0" fill-opacity="0.0"><path d="M 330.0000,168.0000 v 21.0000 "/></g><g stroke-opacity="1.0" fill="rgb(0,0,0)" stroke="rgb(0,0,0)" stroke-linejoin="miter" stroke-linecap="butt" stroke-width="1.5207366635943256" font-size="18.0px" stroke-miterlimit="10.0" fill-opacity="1.0"><text dominant-baseline="middle" stroke="none" transform="matrix(1.0000,0.0000,0.0000,1.0000,390.0000,178.5000)" text-anchor="middle">Arc 0.5 0.7</text></g><g stroke-opacity="1.0" fill="rgb(0,0,0)" stroke="rgb(0,0,0)" stroke-linejoin="miter" stroke-linecap="butt" stroke-width="1.5207366635943256" font-size="12.0px" stroke-miterlimit="10.0" fill-opacity="1.0"><text dominant-baseline="middle" stroke="none" transform="matrix(1.0000,0.0000,0.0000,1.0000,630.0000,162.0000)" text-anchor="middle">1</text></g><g stroke-opacity="1.0" fill="rgb(0,0,0)" stroke="rgb(0,0,0)" stroke-linejoin="miter" stroke-linecap="butt" stroke-width="1.5207366635943256" font-size="12.0px" stroke-miterlimit="10.0" fill-opacity="1.0"><text dominant-baseline="middle" stroke="none" transform="matrix(1.0000,0.0000,0.0000,1.0000,570.0000,162.0000)" text-anchor="middle">9/10</text></g><g stroke-opacity="1.0" fill="rgb(0,0,0)" stroke="rgb(0,0,0)" stroke-linejoin="miter" stroke-linecap="butt" stroke-width="1.5207366635943256" font-size="12.0px" stroke-miterlimit="10.0" fill-opacity="1.0"><text dominant-baseline="middle" stroke="none" transform="matrix(1.0000,0.0000,0.0000,1.0000,510.0000,162.0000)" text-anchor="middle">4/5</text></g><g stroke-opacity="1.0" fill="rgb(0,0,0)" stroke="rgb(0,0,0)" stroke-linejoin="miter" stroke-linecap="butt" stroke-width="1.5207366635943256" font-size="12.0px" stroke-miterlimit="10.0" fill-opacity="1.0"><text dominant-baseline="middle" stroke="none" transform="matrix(1.0000,0.0000,0.0000,1.0000,450.0000,162.0000)" text-anchor="middle">7/10</text></g><g stroke-opacity="1.0" fill="rgb(0,0,0)" stroke="rgb(0,0,0)" stroke-linejoin="miter" stroke-linecap="butt" stroke-width="1.5207366635943256" font-size="12.0px" stroke-miterlimit="10.0" fill-opacity="1.0"><text dominant-baseline="middle" stroke="none" transform="matrix(1.0000,0.0000,0.0000,1.0000,390.0000,162.0000)" text-anchor="middle">3/5</text></g><g stroke-opacity="1.0" fill="rgb(0,0,0)" stroke="rgb(0,0,0)" stroke-linejoin="miter" stroke-linecap="butt" stroke-width="1.5207366635943256" font-size="12.0px" stroke-miterlimit="10.0" fill-opacity="1.0"><text dominant-baseline="middle" stroke="none" transform="matrix(1.0000,0.0000,0.0000,1.0000,330.0000,162.0000)" text-anchor="middle">1/2</text></g><g stroke-opacity="1.0" fill="rgb(0,0,0)" stroke="rgb(0,0,0)" stroke-linejoin="miter" stroke-linecap="butt" stroke-width="1.5207366635943256" font-size="12.0px" stroke-miterlimit="10.0" fill-opacity="1.0"><text dominant-baseline="middle" stroke="none" transform="matrix(1.0000,0.0000,0.0000,1.0000,270.0000,162.0000)" text-anchor="middle">2/5</text></g><g stroke-opacity="1.0" fill="rgb(0,0,0)" stroke="rgb(0,0,0)" stroke-linejoin="miter" stroke-linecap="butt" stroke-width="1.5207366635943256" font-size="12.0px" stroke-miterlimit="10.0" fill-opacity="1.0"><text dominant-baseline="middle" stroke="none" transform="matrix(1.0000,0.0000,0.0000,1.0000,210.0000,162.0000)" text-anchor="middle">3/10</text></g><g stroke-opacity="1.0" fill="rgb(0,0,0)" stroke="rgb(0,0,0)" stroke-linejoin="miter" stroke-linecap="butt" stroke-width="1.5207366635943256" font-size="12.0px" stroke-miterlimit="10.0" fill-opacity="1.0"><text dominant-baseline="middle" stroke="none" transform="matrix(1.0000,0.0000,0.0000,1.0000,150.0000,162.0000)" text-anchor="middle">1/5</text></g><g stroke-opacity="1.0" fill="rgb(0,0,0)" stroke="rgb(0,0,0)" stroke-linejoin="miter" stroke-linecap="butt" stroke-width="1.5207366635943256" font-size="12.0px" stroke-miterlimit="10.0" fill-opacity="1.0"><text dominant-baseline="middle" stroke="none" transform="matrix(1.0000,0.0000,0.0000,1.0000,90.0000,162.0000)" text-anchor="middle">1/10</text></g><g stroke-opacity="1.0" fill="rgb(0,0,0)" stroke="rgb(0,0,0)" stroke-linejoin="miter" stroke-linecap="butt" stroke-width="1.5207366635943256" font-size="12.0px" stroke-miterlimit="10.0" fill-opacity="1.0"><text dominant-baseline="middle" stroke="none" transform="matrix(1.0000,0.0000,0.0000,1.0000,30.0000,162.0000)" text-anchor="middle">0</text></g><g stroke-opacity="1.0" fill="rgb(0,0,0)" stroke="rgb(0,0,0)" stroke-linejoin="miter" stroke-linecap="butt" stroke-width="1.5207366635943256" stroke-miterlimit="10.0" fill-opacity="0.0"><path d="M 630.0000,145.2000 v 9.6000 "/></g><g stroke-opacity="1.0" fill="rgb(0,0,0)" stroke="rgb(0,0,0)" stroke-linejoin="miter" stroke-linecap="butt" stroke-width="1.5207366635943256" stroke-miterlimit="10.0" fill-opacity="0.0"><path d="M 570.0000,145.2000 v 9.6000 "/></g><g stroke-opacity="1.0" fill="rgb(0,0,0)" stroke="rgb(0,0,0)" stroke-linejoin="miter" stroke-linecap="butt" stroke-width="1.5207366635943256" stroke-miterlimit="10.0" fill-opacity="0.0"><path d="M 510.0000,145.2000 v 9.6000 "/></g><g stroke-opacity="1.0" fill="rgb(0,0,0)" stroke="rgb(0,0,0)" stroke-linejoin="miter" stroke-linecap="butt" stroke-width="1.5207366635943256" stroke-miterlimit="10.0" fill-opacity="0.0"><path d="M 450.0000,145.2000 v 9.6000 "/></g><g stroke-opacity="1.0" fill="rgb(0,0,0)" stroke="rgb(0,0,0)" stroke-linejoin="miter" stroke-linecap="butt" stroke-width="1.5207366635943256" stroke-miterlimit="10.0" fill-opacity="0.0"><path d="M 390.0000,145.2000 v 9.6000 "/></g><g stroke-opacity="1.0" fill="rgb(0,0,0)" stroke="rgb(0,0,0)" stroke-linejoin="miter" stroke-linecap="butt" stroke-width="1.5207366635943256" stroke-miterlimit="10.0" fill-opacity="0.0"><path d="M 330.0000,145.2000 v 9.6000 "/></g><g stroke-opacity="1.0" fill="rgb(0,0,0)" stroke="rgb(0,0,0)" stroke-linejoin="miter" stroke-linecap="butt" stroke-width="1.5207366635943256" stroke-miterlimit="10.0" fill-opacity="0.0"><path d="M 270.0000,145.2000 v 9.6000 "/></g><g stroke-opacity="1.0" fill="rgb(0,0,0)" stroke="rgb(0,0,0)" stroke-linejoin="miter" stroke-linecap="butt" stroke-width="1.5207366635943256" stroke-miterlimit="10.0" fill-opacity="0.0"><path d="M 210.0000,145.2000 v 9.6000 "/></g><g stroke-opacity="1.0" fill="rgb(0,0,0)" stroke="rgb(0,0,0)" stroke-linejoin="miter" stroke-linecap="butt" stroke-width="1.5207366635943256" stroke-miterlimit="10.0" fill-opacity="0.0"><path d="M 150.0000,145.2000 v 9.6000 "/></g><g stroke-opacity="1.0" fill="rgb(0,0,0)" stroke="rgb(0,0,0)" stroke-linejoin="miter" stroke-linecap="butt" stroke-width="1.5207366635943256" stroke-miterlimit="10.0" fill-opacity="0.0"><path d="M 90.0000,145.2000 v 9.6000 "/></g><g stroke-opacity="1.0" fill="rgb(0,0,0)" stroke="rgb(0,0,0)" stroke-linejoin="miter" stroke-linecap="butt" stroke-width="1.5207366635943256" stroke-miterlimit="10.0" fill-opacity="0.0"><path d="M 30.0000,145.2000 v 9.6000 "/></g><g stroke-opacity="1.0" fill="rgb(0,0,0)" stroke="rgb(0,0,0)" stroke-linejoin="miter" stroke-linecap="butt" stroke-width="1.5207366635943256" stroke-miterlimit="10.0" fill-opacity="0.0"><path d="M 30.0000,90.0000 l 6.0000,-3.7674 l 6.0000,-3.7526 l 6.0000,-3.7229 l 6.0000,-3.6785 l 6.0000,-3.6196 l 6.0000,-3.5465 l 6.0000,-3.4593 l 6.0000,-3.3585 l 6.0000,-3.2444 l 6.0000,-3.1175 l 6.0000,-2.9783 l 6.0000,-2.8274 l 6.0000,-2.6653 l 6.0000,-2.4927 l 6.0000,-2.3102 l 6.0000,-2.1187 l 6.0000,-1.9187 l 6.0000,-1.7112 l 6.0000,-1.4970 l 6.0000,-1.2768 l 6.0000,-1.0516 l 6.0000,-0.8222 l 6.0000,-0.5896 l 6.0000,-0.3547 l 6.0000,-0.1184 l 6.0000,0.1184 l 6.0000,0.3547 l 6.0000,0.5896 l 6.0000,0.8222 l 6.0000,1.0516 l 6.0000,1.2768 l 6.0000,1.4970 l 6.0000,1.7112 l 6.0000,1.9187 l 6.0000,2.1187 l 6.0000,2.3102 l 6.0000,2.4927 l 6.0000,2.6653 l 6.0000,2.8274 l 6.0000,2.9783 l 6.0000,3.1175 l 6.0000,3.2444 l 6.0000,3.3585 l 6.0000,3.4593 l 6.0000,3.5465 l 6.0000,3.6196 l 6.0000,3.6785 l 6.0000,3.7229 l 6.0000,3.7526 l 6.0000,3.7674 l 6.0000,3.7674 l 6.0000,3.7526 l 6.0000,3.7229 l 6.0000,3.6785 l 6.0000,3.6196 l 6.0000,3.5465 l 6.0000,3.4593 l 6.0000,3.3585 l 6.0000,3.2444 l 6.0000,3.1175 l 6.0000,2.9783 l 6.0000,2.8274 l 6.0000,2.6653 l 6.0000,2.4927 l 6.0000,2.3102 l 6.0000,2.1187 l 6.0000,1.9187 l 6.0000,1.7112 l 6.0000,1.4970 l 6.0000,1.2768 l 6.0000,1.0516 l 6.0000,0.8222 l 6.0000,0.5896 l 6.0000,0.3547 l 6.0000,0.1184 l 6.0000,-0.1184 l 6.0000,-0.3547 l 6.0000,-0.5896 l 6.0000,-0.8222 l 6.0000,-1.0516 l 6.0000,-1.2768 l 6.0000,-1.4970 l 6.0000,-1.7112 l 6.0000,-1.9187 l 6.0000,-2.1187 l 6.0000,-2.3102 l 6.0000,-2.4927 l 6.0000,-2.6653 l 6.0000,-2.8274 l 6.0000,-2.9783 l 6.0000,-3.1175 l 6.0000,-3.2444 l 6.0000,-3.3585 l 6.0000,-3.4593 l 6.0000,-3.5465 l 6.0000,-3.6196 l 6.0000,-3.6785 l 6.0000,-3.7229 l 6.0000,-3.7526 l 6.0000,-3.7674 "/></g><g stroke-opacity="1.0" fill="rgb(0,0,0)" stroke="rgb(0,0,0)" stroke-linejoin="miter" stroke-linecap="butt" stroke-width="1.5207366635943256" stroke-miterlimit="10.0" fill-opacity="0.0"><path d="M 30.0000,150.0000 h 600.0000 "/></g><g stroke-opacity="1.0" fill="rgb(0,0,0)" stroke="rgb(0,0,0)" stroke-linejoin="miter" stroke-linecap="butt" stroke-width="1.5207366635943256" stroke-miterlimit="10.0" fill-opacity="0.0"><path d="M 30.0000,150.0000 v -120.0000 "/></g><g stroke-opacity="1.0" fill="rgb(0,0,0)" stroke="rgb(0,0,0)" stroke-linejoin="miter" stroke-linecap="butt" stroke-width="1.5207366635943256" font-size="18.0px" stroke-miterlimit="10.0" fill-opacity="1.0"><text dominant-baseline="middle" stroke="none" transform="matrix(1.0000,0.0000,0.0000,1.0000,402.0000,125.2671)" text-anchor="start">0.2061073738537635</text></g><g stroke-opacity="1.0" fill="rgb(255,0,0)" stroke="rgb(0,0,0)" stroke-linejoin="miter" stroke-linecap="butt" stroke-width="0.0" stroke-miterlimit="10.0" fill-opacity="1.0"><path d="M 394.5000,125.2671 c 0.0000,-2.4853 -2.0147,-4.5000 -4.5000 -4.5000c -2.4853,-0.0000 -4.5000,2.0147 -4.5000 4.5000c -0.0000,2.4853 2.0147,4.5000 4.5000 4.5000c 2.4853,0.0000 4.5000,-2.0147 4.5000 -4.5000Z"/></g></svg>