<?xml version="1.0" encoding="UTF-8"?>
<!DOCTYPE svg PUBLIC "-//W3C//DTD SVG 1.1//EN"
    "http://www.w3.org/Graphics/SVG/1.1/DTD/svg11.dtd"><svg width="660.0000" stroke-opacity="1" stroke="rgb(0,0,0)" xmlns:xlink="http://www.w3.org/1999/xlink" xmlns="http://www.w3.org/2000/svg" viewBox="0.0 0.0 660.0000000000002 320.9956747309094" font-size="1" height="320.9957" version="1.1"><defs></defs><g stroke-opacity="1.0" fill="rgb(0,0,0)" stroke="rgb(0,0,0)" stroke-linejoin="miter" stroke-linecap="butt" stroke-width="1.8411176836797818" stroke-miterlimit="10.0" fill-opacity="0.0"><path d="M 630.0000,290.9957 l -0.0000,-21.0000 h -150.0000 l -0.0000,21.0000 Z"/></g><g stroke-opacity="1.0" fill="rgb(0,0,0)" stroke="rgb(0,0,0)" stroke-linejoin="miter" stroke-linecap="butt" stroke-width="1.8411176836797818" stroke-miterlimit="10.0" fill-opacity="0.0"><path d="M 480.0000,290.9957 l -0.0000,-21.0000 h -150.0000 l -0.0000,21.0000 Z"/></g><g stroke-opacity="1.0" fill="rgb(0,0,0)" stroke="rgb(0,0,0)" stroke-linejoin="miter" stroke-linecap="butt" stroke-width="1.8411176836797818" stroke-miterlimit="10.0" fill-opacity="0.0"><path d="M 330.0000,290.9957 l -0.0000,-21.0000 h -150.0000 l -0.0000,21.0000 Z"/></g><g stroke-opacity="1.0" fill="rgb(0,0,0)" stroke="rgb(0,0,0)" stroke-linejoin="miter" stroke-linecap="butt" stroke-width="1.8411176836797818" stroke-miterlimit="10.0" fill-opacity="0.0"><path d="M 180.0000,290.9957 l -0.0000,-21.0000 h -150.0000 l -0.0000,21.0000 Z"/></g><g stroke-opacity="1.0" fill="rgb(0,0,0)" stroke="rgb(0,0,0)" stroke-linejoin="miter" stroke-linecap="butt" stroke-width="1.8411176836797818" font-size="18.0px" stroke-miterlimit="10.0" fill-opacity="1.0"><text dominant-baseline="middle" stroke="none" transform="matrix(1.0000,0.0000,0.0000,1.0000,492.0000,280.4957)" text-anchor="start">pan: 0.013, s: &quot;d&quot;</text></g><g stroke-opacity="1.0" fill="rgb(0,0,0)" stroke="rgb(0,0,0)" stroke-linejoin="miter" stroke-linecap="butt" stroke-width="1.8411176836797818" font-size="18.0px" stroke-miterlimit="10.0" fill-opacity="1.0"><text dominant-baseline="middle" stroke="none" transform="matrix(1.0000,0.0000,0.0000,1.0000,342.0000,280.4957)" text-anchor="start">pan: 0.5, s: &quot;c&quot;</text></g><g stroke-opacity="1.0" fill="rgb(0,0,0)" stroke="rgb(0,0,0)" stroke-linejoin="miter" stroke-linecap="butt" stroke-width="1.8411176836797818" font-size="18.0px" stroke-miterlimit="10.0" fill-opacity="1.0"><text dominant-baseline="middle" stroke="none" transform="matrix(1.0000,0.0000,0.0000,1.0000,192.0000,280.4957)" text-anchor="start">pan: 0.987, s: &quot;b&quot;</text></g><g stroke-opacity="1.0" fill="rgb(0,0,0)" stroke="rgb(0,0,0)" stroke-linejoin="miter" stroke-linecap="butt" stroke-width="1.8411176836797818" font-size="18.0px" stroke-miterlimit="10.0" fill-opacity="1.0"><text dominant-baseline="middle" stroke="none" transform="matrix(1.0000,0.0000,0.0000,1.0000,42.0000,280.4957)" text-anchor="start">pan: 0.717, s: &quot;a&quot;</text></g><g stroke-opacity="1.0" fill="rgb(0,0,0)" stroke="rgb(0,0,0)" stroke-linejoin="miter" stroke-linecap="butt" stroke-width="1.8411176836797818" font-size="18.0px" stroke-miterlimit="10.0" fill-opacity="1.0"><text dominant-baseline="middle" stroke="none" transform="matrix(1.0000,0.0000,0.0000,1.0000,30.0000,254.9957)" text-anchor="start">s &quot;a b c d&quot; # (pan $ segment 7 sine)</text></g><g stroke-opacity="1.0" fill="rgb(0,0,0)" stroke="rgb(0,0,0)" stroke-linejoin="miter" stroke-linecap="butt" stroke-width="1.8411176836797818" stroke-miterlimit="10.0" fill-opacity="0.0"><path d="M 630.0000,227.9957 l -0.0000,-21.0000 h -85.7143 l -0.0000,21.0000 Z"/></g><g stroke-opacity="1.0" fill="rgb(0,0,0)" stroke="rgb(0,0,0)" stroke-linejoin="miter" stroke-linecap="butt" stroke-width="1.8411176836797818" stroke-miterlimit="10.0" fill-opacity="0.0"><path d="M 544.2857,227.9957 l -0.0000,-21.0000 h -85.7143 l -0.0000,21.0000 Z"/></g><g stroke-opacity="1.0" fill="rgb(0,0,0)" stroke="rgb(0,0,0)" stroke-linejoin="miter" stroke-linecap="butt" stroke-width="1.8411176836797818" stroke-miterlimit="10.0" fill-opacity="0.0"><path d="M 458.5714,227.9957 l -0.0000,-21.0000 h -85.7143 l -0.0000,21.0000 Z"/></g><g stroke-opacity="1.0" fill="rgb(0,0,0)" stroke="rgb(0,0,0)" stroke-linejoin="miter" stroke-linecap="butt" stroke-width="1.8411176836797818" stroke-miterlimit="10.0" fill-opacity="0.0"><path d="M 372.8571,227.9957 l -0.0000,-21.0000 h -85.7143 l -0.0000,21.0000 Z"/></g><g stroke-opacity="1.0" fill="rgb(0,0,0)" stroke="rgb(0,0,0)" stroke-linejoin="miter" stroke-linecap="butt" stroke-width="1.8411176836797818" stroke-miterlimit="10.0" fill-opacity="0.0"><path d="M 287.1429,227.9957 l -0.0000,-21.0000 h -85.7143 l -0.0000,21.0000 Z"/></g><g stroke-opacity="1.0" fill="rgb(0,0,0)" stroke="rgb(0,0,0)" stroke-linejoin="miter" stroke-linecap="butt" stroke-width="1.8411176836797818" stroke-miterlimit="10.0" fill-opacity="0.0"><path d="M 201.4286,227.9957 l -0.0000,-21.0000 h -85.7143 l -0.0000,21.0000 Z"/></g><g stroke-opacity="1.0" fill="rgb(0,0,0)" stroke="rgb(0,0,0)" stroke-linejoin="miter" stroke-linecap="butt" stroke-width="1.8411176836797818" stroke-miterlimit="10.0" fill-opacity="0.0"><path d="M 115.7143,227.9957 l -0.0000,-21.0000 h -85.7143 l -0.0000,21.0000 Z"/></g><g stroke-opacity="1.0" fill="rgb(0,0,0)" stroke="rgb(0,0,0)" stroke-linejoin="miter" stroke-linecap="butt" stroke-width="1.8411176836797818" font-size="18.0px" stroke-miterlimit="10.0" fill-opacity="1.0"><text dominant-baseline="middle" stroke="none" transform="matrix(1.0000,0.0000,0.0000,1.0000,556.2857,217.4957)" text-anchor="start">0.283</text></g><g stroke-opacity="1.0" fill="rgb(0,0,0)" stroke="rgb(0,0,0)" stroke-linejoin="miter" stroke-linecap="butt" stroke-width="1.8411176836797818" font-size="18.0px" stroke-miterlimit="10.0" fill-opacity="1.0"><text dominant-baseline="middle" stroke="none" transform="matrix(1.0000,0.0000,0.0000,1.0000,470.5714,217.4957)" text-anchor="start">0.013</text></g><g stroke-opacity="1.0" fill="rgb(0,0,0)" stroke="rgb(0,0,0)" stroke-linejoin="miter" stroke-linecap="butt" stroke-width="1.8411176836797818" font-size="18.0px" stroke-miterlimit="10.0" fill-opacity="1.0"><text dominant-baseline="middle" stroke="none" transform="matrix(1.0000,0.0000,0.0000,1.0000,384.8571,217.4957)" text-anchor="start">0.109</text></g><g stroke-opacity="1.0" fill="rgb(0,0,0)" stroke="rgb(0,0,0)" stroke-linejoin="miter" stroke-linecap="butt" stroke-width="1.8411176836797818" font-size="18.0px" stroke-miterlimit="10.0" fill-opacity="1.0"><text dominant-baseline="middle" stroke="none" transform="matrix(1.0000,0.0000,0.0000,1.0000,299.1429,217.4957)" text-anchor="start">0.5</text></g><g stroke-opacity="1.0" fill="rgb(0,0,0)" stroke="rgb(0,0,0)" stroke-linejoin="miter" stroke-linecap="butt" stroke-width="1.8411176836797818" font-size="18.0px" stroke-miterlimit="10.0" fill-opacity="1.0"><text dominant-baseline="middle" stroke="none" transform="matrix(1.0000,0.0000,0.0000,1.0000,213.4286,217.4957)" text-anchor="start">0.891</text></g><g stroke-opacity="1.0" fill="rgb(0,0,0)" stroke="rgb(0,0,0)" stroke-linejoin="miter" stroke-linecap="butt" stroke-width="1.8411176836797818" font-size="18.0px" stroke-miterlimit="10.0" fill-opacity="1.0"><text dominant-baseline="middle" stroke="none" transform="matrix(1.0000,0.0000,0.0000,1.0000,127.7143,217.4957)" text-anchor="start">0.987</text></g><g stroke-opacity="1.0" fill="rgb(0,0,0)" stroke="rgb(0,0,0)" stroke-linejoin="miter" stroke-linecap="butt" stroke-width="1.8411176836797818" font-size="18.0px" stroke-miterlimit="10.0" fill-opacity="1.0"><text dominant-baseline="middle" stroke="none" transform="matrix(1.0000,0.0000,0.0000,1.0000,42.0000,217.4957)" text-anchor="start">0.717</text></g><g stroke-opacity="1.0" fill="rgb(0,0,0)" stroke="rgb(0,0,0)" stroke-linejoin="miter" stroke-linecap="butt" stroke-width="1.8411176836797818" font-size="18.0px" stroke-miterlimit="10.0" fill-opacity="1.0"><text dominant-baseline="middle" stroke="none" transform="matrix(1.0000,0.0000,0.0000,1.0000,30.0000,191.9957)" text-anchor="start">segment 7 sine</text></g><g stroke-opacity="1.0" fill="rgb(0,0,0)" stroke="rgb(0,0,0)" stroke-linejoin="miter" stroke-linecap="butt" stroke-width="1.8411176836797818" font-size="12.0px" stroke-miterlimit="10.0" fill-opacity="1.0"><text dominant-baseline="middle" stroke="none" transform="matrix(1.0000,0.0000,0.0000,1.0000,630.0000,164.9957)" text-anchor="middle">1</text></g><g stroke-opacity="1.0" fill="rgb(0,0,0)" stroke="rgb(0,0,0)" stroke-linejoin="miter" stroke-linecap="butt" stroke-width="1.8411176836797818" font-size="12.0px" stroke-miterlimit="10.0" fill-opacity="1.0"><text dominant-baseline="middle" stroke="none" transform="matrix(1.0000,0.0000,0.0000,1.0000,30.0000,164.9957)" text-anchor="middle">0</text></g><g stroke-opacity="1.0" fill="rgb(0,0,0)" stroke="rgb(0,0,0)" stroke-linejoin="miter" stroke-linecap="butt" stroke-width="1.8411176836797818" stroke-miterlimit="10.0" fill-opacity="0.0"><path d="M 630.0000,148.1957 v 9.6000 "/></g><g stroke-opacity="1.0" fill="rgb(0,0,0)" stroke="rgb(0,0,0)" stroke-linejoin="miter" stroke-linecap="butt" stroke-width="1.8411176836797818" stroke-miterlimit="10.0" fill-opacity="0.0"><path d="M 30.0000,148.1957 v 9.6000 "/></g><g stroke-opacity="1.0" fill="rgb(0,0,0)" stroke="rgb(0,0,0)" stroke-linejoin="miter" stroke-linecap="butt" stroke-width="1.8411176836797818" stroke-miterlimit="10.0" fill-opacity="0.0"><path d="M 30.0000,92.9957 l 6.0000,-3.7674 l 6.0000,-3.7526 l 6.0000,-3.7229 l 6.0000,-3.6785 l 6.0000,-3.6196 l 6.0000,-3.5465 l 6.0000,-3.4593 l 6.0000,-3.3585 l 6.0000,-3.2444 l 6.0000,-3.1175 l 6.0000,-2.9783 l 6.0000,-2.8274 l 6.0000,-2.6653 l 6.0000,-2.4927 l 6.0000,-2.3102 l 6.0000,-2.1187 l 6.0000,-1.9187 l 6.0000,-1.7112 l 6.0000,-1.4970 l 6.0000,-1.2768 l 6.0000,-1.0516 l 6.0000,-0.8222 l 6.0000,-0.5896 l 6.0000,-0.3547 l 6.0000,-0.1184 l 6.0000,0.1184 l 6.0000,0.3547 l 6.0000,0.5896 l 6.0000,0.8222 l 6.0000,1.0516 l 6.0000,1.2768 l 6.0000,1.4970 l 6.0000,1.7112 l 6.0000,1.9187 l 6.0000,2.1187 l 6.0000,2.3102 l 6.0000,2.4927 l 6.0000,2.6653 l 6.0000,2.8274 l 6.0000,2.9783 l 6.0000,3.1175 l 6.0000,3.2444 l 6.0000,3.3585 l 6.0000,3.4593 l 6.0000,3.5465 l 6.0000,3.6196 l 6.0000,3.6785 l 6.0000,3.7229 l 6.0000,3.7526 l 6.0000,3.7674 l 6.0000,3.7674 l 6.0000,3.7526 l 6.0000,3.7229 l 6.0000,3.6785 l 6.0000,3.6196 l 6.0000,3.5465 l 6.0000,3.4593 l 6.0000,3.3585 l 6.0000,3.2444 l 6.0000,3.1175 l 6.0000,2.9783 l 6.0000,2.8274 l 6.0000,2.6653 l 6.0000,2.4927 l 6.0000,2.3102 l 6.0000,2.1187 l 6.0000,1.9187 l 6.0000,1.7112 l 6.0000,1.4970 l 6.0000,1.2768 l 6.0000,1.0516 l 6.0000,0.8222 l 6.0000,0.5896 l 6.0000,0.3547 l 6.0000,0.1184 l 6.0000,-0.1184 l 6.0000,-0.3547 l 6.0000,-0.5896 l 6.0000,-0.8222 l 6.0000,-1.0516 l 6.0000,-1.2768 l 6.0000,-1.4970 l 6.0000,-1.7112 l 6.0000,-1.9187 l 6.0000,-2.1187 l 6.0000,-2.3102 l 6.0000,-2.4927 l 6.0000,-2.6653 l 6.0000,-2.8274 l 6.0000,-2.9783 l 6.0000,-3.1175 l 6.0000,-3.2444 l 6.0000,-3.3585 l 6.0000,-3.4593 l 6.0000,-3.5465 l 6.0000,-3.6196 l 6.0000,-3.6785 l 6.0000,-3.7229 l 6.0000,-3.7526 l 6.0000,-3.7674 "/></g><g stroke-opacity="1.0" fill="rgb(0,0,0)" stroke="rgb(0,0,0)" stroke-linejoin="miter" stroke-linecap="butt" stroke-width="1.8411176836797818" stroke-miterlimit="10.0" fill-opacity="0.0"><path d="M 30.0000,152.9957 h 600.0000 "/></g><g stroke-opacity="1.0" fill="rgb(0,0,0)" stroke="rgb(0,0,0)" stroke-linejoin="miter" stroke-linecap="butt" stroke-width="1.8411176836797818" stroke-miterlimit="10.0" fill-opacity="0.0"><path d="M 30.0000,152.9957 v -120.0000 "/></g><g stroke-opacity="1.0" fill="rgb(0,0,0)" stroke="rgb(0,0,0)" stroke-linejoin="miter" stroke-linecap="butt" stroke-width="1.8411176836797818" font-size="18.0px" stroke-miterlimit="10.0" fill-opacity="1.0"><text dominant-baseline="middle" stroke="none" transform="matrix(1.0000,0.0000,0.0000,1.0000,599.1429,119.0287)" text-anchor="start">0.283</text></g><g stroke-opacity="1.0" fill="rgb(255,0,0)" stroke="rgb(0,0,0)" stroke-linejoin="miter" stroke-linecap="butt" stroke-width="0.0" stroke-miterlimit="10.0" fill-opacity="1.0"><path d="M 591.6429,119.0287 c 0.0000,-2.4853 -2.0147,-4.5000 -4.5000 -4.5000c -2.4853,-0.0000 -4.5000,2.0147 -4.5000 4.5000c -0.0000,2.4853 2.0147,4.5000 4.5000 4.5000c 2.4853,0.0000 4.5000,-2.0147 4.5000 -4.5000Z"/></g><g stroke-opacity="1.0" fill="rgb(0,0,0)" stroke="rgb(0,0,0)" stroke-linejoin="miter" stroke-linecap="butt" stroke-width="1.8411176836797818" font-size="18.0px" stroke-miterlimit="10.0" fill-opacity="1.0"><text dominant-baseline="middle" stroke="none" transform="matrix(1.0000,0.0000,0.0000,1.0000,513.4286,151.4913)" text-anchor="start">0.013</text></g><g stroke-opacity="1.0" fill="rgb(255,0,0)" stroke="rgb(0,0,0)" stroke-linejoin="miter" stroke-linecap="butt" stroke-width="0.0" stroke-miterlimit="10.0" fill-opacity="1.0"><path d="M 505.9286,151.4913 c 0.0000,-2.4853 -2.0147,-4.5000 -4.5000 -4.5000c -2.4853,-0.0000 -4.5000,2.0147 -4.5000 4.5000c -0.0000,2.4853 2.0147,4.5000 4.5000 4.5000c 2.4853,0.0000 4.5000,-2.0147 4.5000 -4.5000Z"/></g><g stroke-opacity="1.0" fill="rgb(0,0,0)" stroke="rgb(0,0,0)" stroke-linejoin="miter" stroke-linecap="butt" stroke-width="1.8411176836797818" font-size="18.0px" stroke-miterlimit="10.0" fill-opacity="1.0"><text dominant-baseline="middle" stroke="none" transform="matrix(1.0000,0.0000,0.0000,1.0000,427.7143,139.9056)" text-anchor="start">0.109</text></g><g stroke-opacity="1.0" fill="rgb(255,0,0)" stroke="rgb(0,0,0)" stroke-linejoin="miter" stroke-linecap="butt" stroke-width="0.0" stroke-miterlimit="10.0" fill-opacity="1.0"><path d="M 420.2143,139.9056 c 0.0000,-2.4853 -2.0147,-4.5000 -4.5000 -4.5000c -2.4853,-0.0000 -4.5000,2.0147 -4.5000 4.5000c -0.0000,2.4853 2.0147,4.5000 4.5000 4.5000c 2.4853,0.0000 4.5000,-2.0147 4.5000 -4.5000Z"/></g><g stroke-opacity="1.0" fill="rgb(0,0,0)" stroke="rgb(0,0,0)" stroke-linejoin="miter" stroke-linecap="butt" stroke-width="1.8411176836797818" font-size="18.0px" stroke-miterlimit="10.0" fill-opacity="1.0"><text dominant-baseline="middle" stroke="none" transform="matrix(1.0000,0.0000,0.0000,1.0000,342.0000,92.9957)" text-anchor="start">0.5</text></g><g stroke-opacity="1.0" fill="rgb(255,0,0)" stroke="rgb(0,0,0)" stroke-linejoin="miter" stroke-linecap="butt" stroke-width="0.0" stroke-miterlimit="10.0" fill-opacity="1.0"><path d="M 334.5000,92.9957 c 0.0000,-2.4853 -2.0147,-4.5000 -4.5000 -4.5000c -2.4853,-0.0000 -4.5000,2.0147 -4.5000 4.5000c -0.0000,2.4853 2.0147,4.5000 4.5000 4.5000c 2.4853,0.0000 4.5000,-2.0147 4.5000 -4.5000Z"/></g><g stroke-opacity="1.0" fill="rgb(0,0,0)" stroke="rgb(0,0,0)" stroke-linejoin="miter" stroke-linecap="butt" stroke-width="1.8411176836797818" font-size="18.0px" stroke-miterlimit="10.0" fill-opacity="1.0"><text dominant-baseline="middle" stroke="none" transform="matrix(1.0000,0.0000,0.0000,1.0000,256.2857,46.0858)" text-anchor="start">0.891</text></g><g stroke-opacity="1.0" fill="rgb(255,0,0)" stroke="rgb(0,0,0)" stroke-linejoin="miter" stroke-linecap="butt" stroke-width="0.0" stroke-miterlimit="10.0" fill-opacity="1.0"><path d="M 248.7857,46.0858 c 0.0000,-2.4853 -2.0147,-4.5000 -4.5000 -4.5000c -2.4853,-0.0000 -4.5000,2.0147 -4.5000 4.5000c -0.0000,2.4853 2.0147,4.5000 4.5000 4.5000c 2.4853,0.0000 4.5000,-2.0147 4.5000 -4.5000Z"/></g><g stroke-opacity="1.0" fill="rgb(0,0,0)" stroke="rgb(0,0,0)" stroke-linejoin="miter" stroke-linecap="butt" stroke-width="1.8411176836797818" font-size="18.0px" stroke-miterlimit="10.0" fill-opacity="1.0"><text dominant-baseline="middle" stroke="none" transform="matrix(1.0000,0.0000,0.0000,1.0000,170.5714,34.5000)" text-anchor="start">0.987</text></g><g stroke-opacity="1.0" fill="rgb(255,0,0)" stroke="rgb(0,0,0)" stroke-linejoin="miter" stroke-linecap="butt" stroke-width="0.0" stroke-miterlimit="10.0" fill-opacity="1.0"><path d="M 163.0714,34.5000 c 0.0000,-2.4853 -2.0147,-4.5000 -4.5000 -4.5000c -2.4853,-0.0000 -4.5000,2.0147 -4.5000 4.5000c -0.0000,2.4853 2.0147,4.5000 4.5000 4.5000c 2.4853,0.0000 4.5000,-2.0147 4.5000 -4.5000Z"/></g><g stroke-opacity="1.0" fill="rgb(0,0,0)" stroke="rgb(0,0,0)" stroke-linejoin="miter" stroke-linecap="butt" stroke-width="1.8411176836797818" font-size="18.0px" stroke-miterlimit="10.0" fill-opacity="1.0"><text dominant-baseline="middle" stroke="none" transform="matrix(1.0000,0.0000,0.0000,1.0000,84.8571,66.9627)" text-anchor="start">0.717</text></g><g stroke-opacity="1.0" fill="rgb(255,0,0)" stroke="rgb(0,0,0)" stroke-linejoin="miter" stroke-linecap="butt" stroke-width="0.0" stroke-miterlimit="10.0" fill-opacity="1.0"><path d="M 77.3571,66.9627 c 0.0000,-2.4853 -2.0147,-4.5000 -4.5000 -4.5000c -2.4853,-0.0000 -4.5000,2.0147 -4.5000 4.5000c -0.0000,2.4853 2.0147,4.5000 4.5000 4.5000c 2.4853,0.0000 4.5000,-2.0147 4.5000 -4.5000Z"/></g></svg>