<?xml version="1.0" encoding="UTF-8"?>
<!DOCTYPE svg PUBLIC "-//W3C//DTD SVG 1.1//EN"
    "http://www.w3.org/Graphics/SVG/1.1/DTD/svg11.dtd"><svg width="660.0000" stroke-opacity="1" stroke="rgb(0,0,0)" xmlns:xlink="http://www.w3.org/1999/xlink" xmlns="http://www.w3.org/2000/svg" viewBox="0.0 0.0 660.0000000000002 192.0" font-size="1" height="192.0000" version="1.1"><defs></defs><g stroke-opacity="1.0" fill="rgb(0,0,0)" stroke="rgb(0,0,0)" stroke-linejoin="miter" stroke-linecap="butt" stroke-width="1.4239101095223676" font-size="12.0px" stroke-miterlimit="10.0" fill-opacity="1.0"><text dominant-baseline="middle" stroke="none" transform="matrix(1.0000,0.0000,0.0000,1.0000,630.0000,162.0000)" text-anchor="middle">1</text></g><g stroke-opacity="1.0" fill="rgb(0,0,0)" stroke="rgb(0,0,0)" stroke-linejoin="miter" stroke-linecap="butt" stroke-width="1.4239101095223676" font-size="12.0px" stroke-miterlimit="10.0" fill-opacity="1.0"><text dominant-baseline="middle" stroke="none" transform="matrix(1.0000,0.0000,0.0000,1.0000,30.0000,162.0000)" text-anchor="middle">0</text></g><g stroke-opacity="1.0" fill="rgb(0,0,0)" stroke="rgb(0,0,0)" stroke-linejoin="miter" stroke-linecap="butt" stroke-width="1.4239101095223676" stroke-miterlimit="10.0" fill-opacity="0.0"><path d="M 630.0000,145.2000 v 9.6000 "/></g><g stroke-opacity="1.0" fill="rgb(0,0,0)" stroke="rgb(0,0,0)" stroke-linejoin="miter" stroke-linecap="butt" stroke-width="1.4239101095223676" stroke-miterlimit="10.0" fill-opacity="0.0"><path d="M 30.0000,145.2000 v 9.6000 "/></g><g stroke-opacity="1.0" fill="rgb(0,0,0)" stroke="rgb(0,0,0)" stroke-linejoin="miter" stroke-linecap="butt" stroke-width="1.4239101095223676" stroke-miterlimit="10.0" fill-opacity="0.0"><path d="M 30.0000,90.0000 l 6.0000,-3.7674 l 6.0000,-3.7526 l 6.0000,-3.7229 l 6.0000,-3.6785 l 6.0000,-3.6196 l 6.0000,-3.5465 l 6.0000,-3.4593 l 6.0000,-3.3585 l 6.0000,-3.2444 l 6.0000,-3.1175 l 6.0000,-2.9783 l 6.0000,-2.8274 l 6.0000,-2.6653 l 6.0000,-2.4927 l 6.0000,-2.3102 l 6.0000,-2.1187 l 6.0000,-1.9187 l 6.0000,-1.7112 l 6.0000,-1.4970 l 6.0000,-1.2768 l 6.0000,-1.0516 l 6.0000,-0.8222 l 6.0000,-0.5896 l 6.0000,-0.3547 l 6.0000,-0.1184 l 6.0000,0.1184 l 6.0000,0.3547 l 6.0000,0.5896 l 6.0000,0.8222 l 6.0000,1.0516 l 6.0000,1.2768 l 6.0000,1.4970 l 6.0000,1.7112 l 6.0000,1.9187 l 6.0000,2.1187 l 6.0000,2.3102 l 6.0000,2.4927 l 6.0000,2.6653 l 6.0000,2.8274 l 6.0000,2.9783 l 6.0000,3.1175 l 6.0000,3.2444 l 6.0000,3.3585 l 6.0000,3.4593 l 6.0000,3.5465 l 6.0000,3.6196 l 6.0000,3.6785 l 6.0000,3.7229 l 6.0000,3.7526 l 6.0000,3.7674 l 6.0000,3.7674 l 6.0000,3.7526 l 6.0000,3.7229 l 6.0000,3.6785 l 6.0000,3.6196 l 6.0000,3.5465 l 6.0000,3.4593 l 6.0000,3.3585 l 6.0000,3.2444 l 6.0000,3.1175 l 6.0000,2.9783 l 6.0000,2.8274 l 6.0000,2.6653 l 6.0000,2.4927 l 6.0000,2.3102 l 6.0000,2.1187 l 6.0000,1.9187 l 6.0000,1.7112 l 6.0000,1.4970 l 6.0000,1.2768 l 6.0000,1.0516 l 6.0000,0.8222 l 6.0000,0.5896 l 6.0000,0.3547 l 6.0000,0.1184 l 6.0000,-0.1184 l 6.0000,-0.3547 l 6.0000,-0.5896 l 6.0000,-0.8222 l 6.0000,-1.0516 l 6.0000,-1.2768 l 6.0000,-1.4970 l 6.0000,-1.7112 l 6.0000,-1.9187 l 6.0000,-2.1187 l 6.0000,-2.3102 l 6.0000,-2.4927 l 6.0000,-2.6653 l 6.0000,-2.8274 l 6.0000,-2.9783 l 6.0000,-3.1175 l 6.0000,-3.2444 l 6.0000,-3.3585 l 6.0000,-3.4593 l 6.0000,-3.5465 l 6.0000,-3.6196 l 6.0000,-3.6785 l 6.0000,-3.7229 l 6.0000,-3.7526 l 6.0000,-3.7674 "/></g><g stroke-opacity="1.0" fill="rgb(0,0,0)" stroke="rgb(0,0,0)" stroke-linejoin="miter" stroke-linecap="butt" stroke-width="1.4239101095223676" stroke-miterlimit="10.0" fill-opacity="0.0"><path d="M 30.0000,150.0000 h 600.0000 "/></g><g stroke-opacity="1.0" fill="rgb(0,0,0)" stroke="rgb(0,0,0)" stroke-linejoin="miter" stroke-linecap="butt" stroke-width="1.4239101095223676" stroke-miterlimit="10.0" fill-opacity="0.0"><path d="M 30.0000,150.0000 v -120.0000 "/></g></svg>