<?xml version="1.0" encoding="UTF-8"?>
<!DOCTYPE svg PUBLIC "-//W3C//DTD SVG 1.1//EN"
    "http://www.w3.org/Graphics/SVG/1.1/DTD/svg11.dtd"><svg width="310.9859" stroke-opacity="1" stroke="rgb(0,0,0)" xmlns:xlink="http://www.w3.org/1999/xlink" xmlns="http://www.w3.org/2000/svg" viewBox="0.0 0.0 310.98593171027443 323.95776634508616" font-size="1" height="323.9578" version="1.1"><defs></defs><g stroke-opacity="1.0" fill="rgb(0,0,0)" stroke="rgb(0,0,0)" stroke-linejoin="miter" stroke-linecap="butt" stroke-width="1.2696223552008277" stroke-miterlimit="10.0" fill-opacity="0.0"><path d="M 250.9859,168.4648 c 0.0000,-52.7393 -42.7537,-95.4930 -95.4930 -95.4930c -52.7393,-0.0000 -95.4930,42.7537 -95.4930 95.4930c -0.0000,52.7393 42.7537,95.4930 95.4930 95.4930c 52.7393,0.0000 95.4930,-42.7537 95.4930 -95.4930Z"/></g><g stroke-opacity="1.0" fill="rgb(0,0,0)" stroke="rgb(0,0,0)" stroke-linejoin="miter" stroke-linecap="butt" stroke-width="1.2696223552008277" font-size="12.0px" stroke-miterlimit="10.0" fill-opacity="1.0"><text dominant-baseline="middle" stroke="none" transform="matrix(1.0000,0.0000,0.0000,1.0000,30.0000,168.4648)" text-anchor="middle">3/4</text></g><g stroke-opacity="1.0" fill="rgb(0,0,0)" stroke="rgb(0,0,0)" stroke-linejoin="miter" stroke-linecap="butt" stroke-width="1.2696223552008277" font-size="12.0px" stroke-miterlimit="10.0" fill-opacity="1.0"><text dominant-baseline="middle" stroke="none" transform="matrix(1.0000,0.0000,0.0000,1.0000,155.4930,293.9578)" text-anchor="middle">1/2</text></g><g stroke-opacity="1.0" fill="rgb(0,0,0)" stroke="rgb(0,0,0)" stroke-linejoin="miter" stroke-linecap="butt" stroke-width="1.2696223552008277" font-size="12.0px" stroke-miterlimit="10.0" fill-opacity="1.0"><text dominant-baseline="middle" stroke="none" transform="matrix(1.0000,0.0000,0.0000,1.0000,280.9859,168.4648)" text-anchor="middle">1/4</text></g><g stroke-opacity="1.0" fill="rgb(0,0,0)" stroke="rgb(0,0,0)" stroke-linejoin="miter" stroke-linecap="butt" stroke-width="1.2696223552008277" font-size="12.0px" stroke-miterlimit="10.0" fill-opacity="1.0"><text dominant-baseline="middle" stroke="none" transform="matrix(1.0000,0.0000,0.0000,1.0000,155.4930,42.9718)" text-anchor="middle">0</text></g><g stroke-opacity="1.0" fill="rgb(0,0,0)" stroke="rgb(0,0,0)" stroke-linejoin="miter" stroke-linecap="butt" stroke-width="1.2696223552008277" stroke-miterlimit="10.0" fill-opacity="0.0"><path d="M 64.7746,168.4648 l -9.5493,0.0000 "/></g><g stroke-opacity="1.0" fill="rgb(0,0,0)" stroke="rgb(0,0,0)" stroke-linejoin="miter" stroke-linecap="butt" stroke-width="1.2696223552008277" stroke-miterlimit="10.0" fill-opacity="0.0"><path d="M 155.4930,259.1831 l 0.0000,9.5493 "/></g><g stroke-opacity="1.0" fill="rgb(0,0,0)" stroke="rgb(0,0,0)" stroke-linejoin="miter" stroke-linecap="butt" stroke-width="1.2696223552008277" stroke-miterlimit="10.0" fill-opacity="0.0"><path d="M 246.2113,168.4648 h 9.5493 "/></g><g stroke-opacity="1.0" fill="rgb(0,0,0)" stroke="rgb(0,0,0)" stroke-linejoin="miter" stroke-linecap="butt" stroke-width="1.2696223552008277" stroke-miterlimit="10.0" fill-opacity="0.0"><path d="M 155.4930,77.7465 l 0.0000,-9.5493 "/></g><g stroke-opacity="1.0" fill="rgb(0,0,0)" stroke="rgb(0,0,0)" stroke-linejoin="miter" stroke-linecap="butt" stroke-width="1.2696223552008277" stroke-miterlimit="10.0" fill-opacity="0.0"><path d="M 155.4930,30.0000 c 19.6443,-0.7887 39.1696,3.3975 56.7640 12.1701"/></g><g stroke-opacity="1.0" fill="rgb(0,0,0)" stroke="rgb(0,0,0)" stroke-linejoin="miter" stroke-linecap="butt" stroke-width="0.0" stroke-miterlimit="10.0" fill-opacity="1.0"></g><g stroke-opacity="1.0" fill="rgb(0,0,0)" stroke="rgb(0,0,0)" stroke-linejoin="miter" stroke-linecap="butt" stroke-width="0.0" stroke-miterlimit="10.0" fill-opacity="1.0"></g><g stroke-opacity="1.0" fill="rgb(0,0,0)" stroke="rgb(0,0,0)" stroke-linejoin="miter" stroke-linecap="butt" stroke-width="0.0" stroke-miterlimit="10.0" fill-opacity="1.0"><path d="M 222.1989,47.1272 l -9.7458,-9.5774 l 0.1025,4.7693 l -3.8707,2.7882 Z"/></g><g stroke-opacity="1.0" fill="rgb(0,0,0)" stroke="rgb(0,0,0)" stroke-linejoin="miter" stroke-linecap="butt" stroke-width="0.0" stroke-miterlimit="10.0" fill-opacity="1.0"><path d="M 212.5556,42.3190 l -0.2987,-0.1489 l 0.2833,-0.5681 l 0.0154,0.7170 l -0.2987,-0.1489 l -0.2833,0.5681 Z"/></g><g stroke-opacity="1.0" fill="rgb(214,39,40)" stroke="rgb(0,0,0)" stroke-linejoin="miter" stroke-linecap="butt" stroke-width="0.0" stroke-miterlimit="10.0" fill-opacity="1.0"><path d="M 70.5000,168.4648 l -21.0000,0.0000 c -0.0000,-57.7596 46.2458,-104.8855 103.9952 -105.9741l 0.3958,20.9963 c -46.3077,0.8730 -83.3910,38.6620 -83.3910 84.9779Z"/></g><g stroke-opacity="1.0" fill="rgb(127,127,127)" stroke="rgb(0,0,0)" stroke-linejoin="miter" stroke-linecap="butt" stroke-width="0.0" stroke-miterlimit="10.0" fill-opacity="1.0"><path d="M 155.4930,253.4578 l 0.0000,21.0000 c -57.7596,0.0000 -104.8855,-46.2458 -105.9741 -103.9952l 20.9963,-0.3958 c 0.8730,46.3077 38.6620,83.3910 84.9779 83.3910Z"/></g><g stroke-opacity="1.0" fill="rgb(255,127,14)" stroke="rgb(0,0,0)" stroke-linejoin="miter" stroke-linecap="butt" stroke-width="0.0" stroke-miterlimit="10.0" fill-opacity="1.0"><path d="M 229.0990,210.9613 l 18.1865,10.5000 c -18.5774,32.1770 -52.6467,52.2773 -89.7948 52.9777l -0.3958,-20.9963 c 29.7881,-0.5616 57.1074,-16.6795 72.0041 -42.4814Z"/></g><g stroke-opacity="1.0" fill="rgb(44,160,44)" stroke="rgb(0,0,0)" stroke-linejoin="miter" stroke-linecap="butt" stroke-width="0.0" stroke-miterlimit="10.0" fill-opacity="1.0"><path d="M 229.0990,125.9683 l 18.1865,-10.5000 c 18.5774,32.1770 18.9502,71.7320 0.9826 104.2534l -18.3812,-10.1553 c 14.4077,-26.0780 14.1088,-57.7962 -0.7879 -83.5981Z"/></g><g stroke-opacity="1.0" fill="rgb(31,119,180)" stroke="rgb(0,0,0)" stroke-linejoin="miter" stroke-linecap="butt" stroke-width="0.0" stroke-miterlimit="10.0" fill-opacity="1.0"><path d="M 155.4930,83.4718 l 0.0000,-21.0000 c 37.1547,0.0000 71.5968,19.4547 90.7774 51.2758l -17.9854,10.8409 c -15.3804,-25.5165 -42.9986,-41.1167 -72.7920 -41.1167Z"/></g><g stroke-opacity="1.0" fill="rgb(255,152,150)" stroke="rgb(0,0,0)" stroke-linejoin="miter" stroke-linecap="butt" stroke-width="0.0" font-size="18.0px" stroke-miterlimit="10.0" fill-opacity="1.0"><text dominant-baseline="middle" stroke="none" transform="matrix(1.0000,0.0000,0.0000,1.0000,60.7530,156.4964)" text-anchor="middle">e</text></g><g stroke-opacity="1.0" fill="rgb(199,199,199)" stroke="rgb(0,0,0)" stroke-linejoin="miter" stroke-linecap="butt" stroke-width="0.0" font-size="18.0px" stroke-miterlimit="10.0" fill-opacity="1.0"><text dominant-baseline="middle" stroke="none" transform="matrix(1.0000,0.0000,0.0000,1.0000,143.5245,263.2048)" text-anchor="middle">d</text></g><g stroke-opacity="1.0" fill="rgb(255,187,120)" stroke="rgb(0,0,0)" stroke-linejoin="miter" stroke-linecap="butt" stroke-width="0.0" font-size="18.0px" stroke-miterlimit="10.0" fill-opacity="1.0"><text dominant-baseline="middle" stroke="none" transform="matrix(1.0000,0.0000,0.0000,1.0000,231.5560,226.1998)" text-anchor="middle">c</text></g><g stroke-opacity="1.0" fill="rgb(152,223,138)" stroke="rgb(0,0,0)" stroke-linejoin="miter" stroke-linecap="butt" stroke-width="0.0" font-size="18.0px" stroke-miterlimit="10.0" fill-opacity="1.0"><text dominant-baseline="middle" stroke="none" transform="matrix(1.0000,0.0000,0.0000,1.0000,243.5244,131.4598)" text-anchor="middle">b</text></g><g stroke-opacity="1.0" fill="rgb(174,199,232)" stroke="rgb(0,0,0)" stroke-linejoin="miter" stroke-linecap="butt" stroke-width="0.0" font-size="18.0px" stroke-miterlimit="10.0" fill-opacity="1.0"><text dominant-baseline="middle" stroke="none" transform="matrix(1.0000,0.0000,0.0000,1.0000,167.4614,73.7248)" text-anchor="middle">a</text></g></svg>