<?xml version="1.0" encoding="UTF-8"?>
<!DOCTYPE svg PUBLIC "-//W3C//DTD SVG 1.1//EN"
    "http://www.w3.org/Graphics/SVG/1.1/DTD/svg11.dtd"><svg width="277.3602" stroke-opacity="1" stroke="rgb(0,0,0)" xmlns:xlink="http://www.w3.org/1999/xlink" xmlns="http://www.w3.org/2000/svg" viewBox="0.0 0.0 277.36019285360396 304.4577663450861" font-size="1" height="304.4578" version="1.1"><defs></defs><g stroke-opacity="1.0" fill="rgb(0,0,0)" stroke="rgb(0,0,0)" stroke-linejoin="miter" stroke-linecap="butt" stroke-width="1.1623731916333968" stroke-miterlimit="10.0" fill-opacity="0.0"><path d="M 234.1731,168.4648 c 0.0000,-52.7393 -42.7537,-95.4930 -95.4930 -95.4930c -52.7393,-0.0000 -95.4930,42.7537 -95.4930 95.4930c -0.0000,52.7393 42.7537,95.4930 95.4930 95.4930c 52.7393,0.0000 95.4930,-42.7537 95.4930 -95.4930Z"/></g><g stroke-opacity="1.0" fill="rgb(0,0,0)" stroke="rgb(0,0,0)" stroke-linejoin="miter" stroke-linecap="butt" stroke-width="1.1623731916333968" font-size="12.0px" stroke-miterlimit="10.0" fill-opacity="1.0"><text dominant-baseline="middle" stroke="none" transform="matrix(1.0000,0.0000,0.0000,1.0000,30.0000,231.2113)" text-anchor="middle">2/3</text></g><g stroke-opacity="1.0" fill="rgb(0,0,0)" stroke="rgb(0,0,0)" stroke-linejoin="miter" stroke-linecap="butt" stroke-width="1.1623731916333968" font-size="12.0px" stroke-miterlimit="10.0" fill-opacity="1.0"><text dominant-baseline="middle" stroke="none" transform="matrix(1.0000,0.0000,0.0000,1.0000,247.3602,231.2113)" text-anchor="middle">1/3</text></g><g stroke-opacity="1.0" fill="rgb(0,0,0)" stroke="rgb(0,0,0)" stroke-linejoin="miter" stroke-linecap="butt" stroke-width="1.1623731916333968" font-size="12.0px" stroke-miterlimit="10.0" fill-opacity="1.0"><text dominant-baseline="middle" stroke="none" transform="matrix(1.0000,0.0000,0.0000,1.0000,138.6801,42.9718)" text-anchor="middle">0</text></g><g stroke-opacity="1.0" fill="rgb(0,0,0)" stroke="rgb(0,0,0)" stroke-linejoin="miter" stroke-linecap="butt" stroke-width="1.1623731916333968" stroke-miterlimit="10.0" fill-opacity="0.0"><path d="M 60.1157,213.8240 l -8.2699,4.7746 "/></g><g stroke-opacity="1.0" fill="rgb(0,0,0)" stroke="rgb(0,0,0)" stroke-linejoin="miter" stroke-linecap="butt" stroke-width="1.1623731916333968" stroke-miterlimit="10.0" fill-opacity="0.0"><path d="M 217.2445,213.8240 l 8.2699,4.7746 "/></g><g stroke-opacity="1.0" fill="rgb(0,0,0)" stroke="rgb(0,0,0)" stroke-linejoin="miter" stroke-linecap="butt" stroke-width="1.1623731916333968" stroke-miterlimit="10.0" fill-opacity="0.0"><path d="M 138.6801,77.7465 l 0.0000,-9.5493 "/></g><g stroke-opacity="1.0" fill="rgb(0,0,0)" stroke="rgb(0,0,0)" stroke-linejoin="miter" stroke-linecap="butt" stroke-width="1.1623731916333968" stroke-miterlimit="10.0" fill-opacity="0.0"><path d="M 138.6801,30.0000 c 19.9575,-0.7335 39.7770,3.5861 57.6193 12.5580"/></g><g stroke-opacity="1.0" fill="rgb(0,0,0)" stroke="rgb(0,0,0)" stroke-linejoin="miter" stroke-linecap="butt" stroke-width="0.0" stroke-miterlimit="10.0" fill-opacity="1.0"></g><g stroke-opacity="1.0" fill="rgb(0,0,0)" stroke="rgb(0,0,0)" stroke-linejoin="miter" stroke-linecap="butt" stroke-width="0.0" stroke-miterlimit="10.0" fill-opacity="1.0"></g><g stroke-opacity="1.0" fill="rgb(0,0,0)" stroke="rgb(0,0,0)" stroke-linejoin="miter" stroke-linecap="butt" stroke-width="0.0" stroke-miterlimit="10.0" fill-opacity="1.0"><path d="M 205.3860,47.1272 l -8.8927,-8.7986 l 0.0790,4.3667 l -3.5524,2.5407 Z"/></g><g stroke-opacity="1.0" fill="rgb(0,0,0)" stroke="rgb(0,0,0)" stroke-linejoin="miter" stroke-linecap="butt" stroke-width="0.0" stroke-miterlimit="10.0" fill-opacity="1.0"><path d="M 196.5724,42.6953 l -0.2730,-0.1373 l 0.2611,-0.5192 l 0.0119,0.6565 l -0.2730,-0.1373 l -0.2611,0.5192 Z"/></g><g stroke-opacity="1.0" fill="rgb(255,127,14)" stroke="rgb(0,0,0)" stroke-linejoin="miter" stroke-linecap="butt" stroke-width="0.0" stroke-miterlimit="10.0" fill-opacity="1.0"><path d="M 65.0740,210.9613 l -18.1865,10.5000 c -29.2691,-50.6957 -11.8995,-115.5199 38.7961 -144.7891c 15.5266,-8.9643 33.0733,-13.8436 50.9987 -14.1815l 0.3958,20.9963 c -46.9320,0.8848 -84.2606,39.6479 -83.3759 86.5799c 0.2710,14.3739 4.1836,28.4441 11.3718 40.8945Z"/></g><g stroke-opacity="1.0" fill="rgb(31,119,180)" stroke="rgb(0,0,0)" stroke-linejoin="miter" stroke-linecap="butt" stroke-width="0.0" stroke-miterlimit="10.0" fill-opacity="1.0"><path d="M 138.6801,83.4718 l 0.0000,-21.0000 c 58.5383,0.0000 105.9930,47.4547 105.9930 105.9930c 0.0000,58.5383 -47.4547,105.9930 -105.9930 105.9930c -37.1547,0.0000 -71.5968,-19.4547 -90.7774 -51.2758l 17.9854,-10.8409 c 24.2322,40.2019 76.4664,53.1479 116.6683 28.9157c 40.2019,-24.2322 53.1479,-76.4664 28.9157 -116.6683c -15.3804,-25.5165 -42.9986,-41.1167 -72.7920 -41.1167Z"/></g><g stroke-opacity="1.0" fill="rgb(255,187,120)" stroke="rgb(0,0,0)" stroke-linejoin="miter" stroke-linecap="butt" stroke-width="0.0" font-size="18.0px" stroke-miterlimit="10.0" fill-opacity="1.0"><text dominant-baseline="middle" stroke="none" transform="matrix(1.0000,0.0000,0.0000,1.0000,50.6486,205.4698)" text-anchor="middle">c</text></g><g stroke-opacity="1.0" fill="rgb(174,199,232)" stroke="rgb(0,0,0)" stroke-linejoin="miter" stroke-linecap="butt" stroke-width="0.0" font-size="18.0px" stroke-miterlimit="10.0" fill-opacity="1.0"><text dominant-baseline="middle" stroke="none" transform="matrix(1.0000,0.0000,0.0000,1.0000,150.6485,73.7248)" text-anchor="middle">a</text></g></svg>